<svg width="820" height="760" viewBox="0 0 820 760"
     xmlns="http://www.w3.org/2000/svg"
     font-family="Georgia, Times New Roman, serif">

  <style>
    .box {
      fill: #ffffff;
      stroke: #1f2937;
      stroke-width: 1.2;
    }
    .title {
      font-size: 16px;
      font-weight: bold;
      fill: #111827;
    }
    .text {
      font-size: 14px;
      fill: #374151;
    }
    .arrow {
      stroke: #1f2937;
      stroke-width: 1.2;
      fill: none;
      marker-end: url(#arrowhead);
    }
  </style>

  <defs>
    <marker id="arrowhead" markerWidth="10" markerHeight="7"
            refX="10" refY="3.5" orient="auto">
      <polygon points="0 0, 10 3.5, 0 7" fill="#1f2937"/>
    </marker>
  </defs>

  <!-- Boxes -->
  <rect class="box" x="160" y="20"  width="500" height="70"/>
  <rect class="box" x="160" y="120" width="500" height="80"/>
  <rect class="box" x="160" y="230" width="500" height="70"/>
  <rect class="box" x="160" y="330" width="500" height="90"/>
  <rect class="box" x="160" y="460" width="500" height="70"/>
  <rect class="box" x="160" y="560" width="500" height="90"/>

  <!-- Arrows -->
  <line class="arrow" x1="410" y1="90"  x2="410" y2="120"/>
  <line class="arrow" x1="410" y1="200" x2="410" y2="230"/>
  <line class="arrow" x1="410" y1="300" x2="410" y2="330"/>
  <line class="arrow" x1="410" y1="420" x2="410" y2="460"/>
  <line class="arrow" x1="410" y1="530" x2="410" y2="560"/>

  <!-- Text -->
  <text class="title" x="410" y="45" text-anchor="middle">
    Market Data
  </text>
  <text class="text" x="410" y="65" text-anchor="middle">
    Prices • Volume • Liquidity • Volatility • Microstructure
  </text>

  <text class="title" x="410" y="155" text-anchor="middle">
    Regime Diagnostics
  </text>
  <text class="text" x="410" y="175" text-anchor="middle">
    PDRC • Market Physiology
  </text>

  <text class="title" x="410" y="265" text-anchor="middle">
    Cognitive Diagnostics
  </text>
  <text class="text" x="410" y="285" text-anchor="middle">
    Belief–Reality Divergence (BRD)
  </text>

  <text class="title" x="410" y="365" text-anchor="middle">
    Strategy Genesis & Evolution
  </text>
  <text class="text" x="410" y="385" text-anchor="middle">
    Cognitive Womb • Evolutionary Market Intelligence
  </text>

  <text class="title" x="410" y="495" text-anchor="middle">
    Long-Horizon Adaptive Coherence
  </text>
  <text class="text" x="410" y="515" text-anchor="middle">
    Eterna Framework
  </text>

  <text class="title" x="410" y="595" text-anchor="middle">
    System Governance & Execution
  </text>
  <text class="text" x="410" y="615" text-anchor="middle">
    AlphaGen Architecture • AlphaGen Ecosystem
  </text>

</svg>
